<mxfile host="app.diagrams.net" agent="Mozilla/5.0 (Windows NT 10.0; Win64; x64) AppleWebKit/537.36 (KHTML, like Gecko) Chrome/120.0.0.0 Safari/537.36" version="24.7.7">
  <diagram name="Página-1" id="Jg9JMPbk8pwASnv8NfW3">
    <mxGraphModel dx="2261" dy="780" grid="1" gridSize="10" guides="1" tooltips="1" connect="1" arrows="1" fold="1" page="1" pageScale="1" pageWidth="827" pageHeight="1169" math="0" shadow="0">
      <root>
        <mxCell id="0" />
        <mxCell id="1" parent="0" />
        <mxCell id="B1tBxiwU7NG2yBbOXdDy-28" style="edgeStyle=orthogonalEdgeStyle;rounded=0;orthogonalLoop=1;jettySize=auto;html=1;exitX=0.5;exitY=1;exitDx=0;exitDy=0;entryX=0.5;entryY=0;entryDx=0;entryDy=0;" parent="1" source="B1tBxiwU7NG2yBbOXdDy-1" target="B1tBxiwU7NG2yBbOXdDy-27" edge="1">
          <mxGeometry relative="1" as="geometry" />
        </mxCell>
        <mxCell id="B1tBxiwU7NG2yBbOXdDy-36" style="edgeStyle=orthogonalEdgeStyle;rounded=0;orthogonalLoop=1;jettySize=auto;html=1;exitX=0;exitY=0;exitDx=0;exitDy=0;entryX=1;entryY=0.5;entryDx=0;entryDy=0;" parent="1" source="B1tBxiwU7NG2yBbOXdDy-1" target="B1tBxiwU7NG2yBbOXdDy-4" edge="1">
          <mxGeometry relative="1" as="geometry">
            <Array as="points">
              <mxPoint x="-270" y="220" />
            </Array>
          </mxGeometry>
        </mxCell>
        <mxCell id="B1tBxiwU7NG2yBbOXdDy-37" style="edgeStyle=orthogonalEdgeStyle;rounded=0;orthogonalLoop=1;jettySize=auto;html=1;exitX=1;exitY=0;exitDx=0;exitDy=0;entryX=0;entryY=0.5;entryDx=0;entryDy=0;" parent="1" source="B1tBxiwU7NG2yBbOXdDy-1" target="B1tBxiwU7NG2yBbOXdDy-7" edge="1">
          <mxGeometry relative="1" as="geometry">
            <Array as="points">
              <mxPoint x="-170" y="220" />
            </Array>
          </mxGeometry>
        </mxCell>
        <mxCell id="B1tBxiwU7NG2yBbOXdDy-38" style="edgeStyle=orthogonalEdgeStyle;rounded=0;orthogonalLoop=1;jettySize=auto;html=1;exitX=0.75;exitY=0;exitDx=0;exitDy=0;entryX=0;entryY=1;entryDx=0;entryDy=0;" parent="1" source="B1tBxiwU7NG2yBbOXdDy-1" target="B1tBxiwU7NG2yBbOXdDy-6" edge="1">
          <mxGeometry relative="1" as="geometry" />
        </mxCell>
        <mxCell id="B1tBxiwU7NG2yBbOXdDy-39" style="edgeStyle=orthogonalEdgeStyle;rounded=0;orthogonalLoop=1;jettySize=auto;html=1;exitX=0.25;exitY=0;exitDx=0;exitDy=0;entryX=1;entryY=1;entryDx=0;entryDy=0;" parent="1" source="B1tBxiwU7NG2yBbOXdDy-1" target="B1tBxiwU7NG2yBbOXdDy-5" edge="1">
          <mxGeometry relative="1" as="geometry" />
        </mxCell>
        <mxCell id="B1tBxiwU7NG2yBbOXdDy-1" value="ALUMNO" style="whiteSpace=wrap;html=1;align=center;" parent="1" vertex="1">
          <mxGeometry x="-270" y="240" width="100" height="40" as="geometry" />
        </mxCell>
        <mxCell id="B1tBxiwU7NG2yBbOXdDy-34" style="edgeStyle=orthogonalEdgeStyle;rounded=0;orthogonalLoop=1;jettySize=auto;html=1;exitX=0;exitY=0.25;exitDx=0;exitDy=0;entryX=1;entryY=0.5;entryDx=0;entryDy=0;" parent="1" source="B1tBxiwU7NG2yBbOXdDy-2" target="B1tBxiwU7NG2yBbOXdDy-13" edge="1">
          <mxGeometry relative="1" as="geometry" />
        </mxCell>
        <mxCell id="B1tBxiwU7NG2yBbOXdDy-35" style="edgeStyle=orthogonalEdgeStyle;rounded=0;orthogonalLoop=1;jettySize=auto;html=1;exitX=0;exitY=0.75;exitDx=0;exitDy=0;" parent="1" source="B1tBxiwU7NG2yBbOXdDy-2" target="B1tBxiwU7NG2yBbOXdDy-12" edge="1">
          <mxGeometry relative="1" as="geometry" />
        </mxCell>
        <mxCell id="B1tBxiwU7NG2yBbOXdDy-2" value="ASIGNATURA" style="whiteSpace=wrap;html=1;align=center;" parent="1" vertex="1">
          <mxGeometry x="-270" y="440" width="100" height="40" as="geometry" />
        </mxCell>
        <mxCell id="B1tBxiwU7NG2yBbOXdDy-21" style="edgeStyle=orthogonalEdgeStyle;rounded=0;orthogonalLoop=1;jettySize=auto;html=1;exitX=0.5;exitY=1;exitDx=0;exitDy=0;entryX=0.5;entryY=0;entryDx=0;entryDy=0;" parent="1" source="B1tBxiwU7NG2yBbOXdDy-3" target="B1tBxiwU7NG2yBbOXdDy-18" edge="1">
          <mxGeometry relative="1" as="geometry" />
        </mxCell>
        <mxCell id="B1tBxiwU7NG2yBbOXdDy-22" style="edgeStyle=orthogonalEdgeStyle;rounded=0;orthogonalLoop=1;jettySize=auto;html=1;exitX=0.5;exitY=0;exitDx=0;exitDy=0;entryX=0.5;entryY=1;entryDx=0;entryDy=0;" parent="1" source="B1tBxiwU7NG2yBbOXdDy-3" target="B1tBxiwU7NG2yBbOXdDy-20" edge="1">
          <mxGeometry relative="1" as="geometry" />
        </mxCell>
        <mxCell id="B1tBxiwU7NG2yBbOXdDy-23" style="edgeStyle=orthogonalEdgeStyle;rounded=0;orthogonalLoop=1;jettySize=auto;html=1;exitX=0.75;exitY=0;exitDx=0;exitDy=0;entryX=0;entryY=0.5;entryDx=0;entryDy=0;" parent="1" source="B1tBxiwU7NG2yBbOXdDy-3" target="B1tBxiwU7NG2yBbOXdDy-19" edge="1">
          <mxGeometry relative="1" as="geometry" />
        </mxCell>
        <mxCell id="B1tBxiwU7NG2yBbOXdDy-24" style="edgeStyle=orthogonalEdgeStyle;rounded=0;orthogonalLoop=1;jettySize=auto;html=1;exitX=0.75;exitY=1;exitDx=0;exitDy=0;entryX=0;entryY=0.5;entryDx=0;entryDy=0;" parent="1" source="B1tBxiwU7NG2yBbOXdDy-3" target="B1tBxiwU7NG2yBbOXdDy-17" edge="1">
          <mxGeometry relative="1" as="geometry" />
        </mxCell>
        <mxCell id="B1tBxiwU7NG2yBbOXdDy-25" style="edgeStyle=orthogonalEdgeStyle;rounded=0;orthogonalLoop=1;jettySize=auto;html=1;exitX=1;exitY=0.5;exitDx=0;exitDy=0;" parent="1" source="B1tBxiwU7NG2yBbOXdDy-3" target="B1tBxiwU7NG2yBbOXdDy-16" edge="1">
          <mxGeometry relative="1" as="geometry" />
        </mxCell>
        <mxCell id="B1tBxiwU7NG2yBbOXdDy-32" style="edgeStyle=orthogonalEdgeStyle;rounded=0;orthogonalLoop=1;jettySize=auto;html=1;exitX=0;exitY=0.5;exitDx=0;exitDy=0;entryX=1;entryY=0.5;entryDx=0;entryDy=0;" parent="1" source="B1tBxiwU7NG2yBbOXdDy-3" target="B1tBxiwU7NG2yBbOXdDy-31" edge="1">
          <mxGeometry relative="1" as="geometry" />
        </mxCell>
        <mxCell id="B1tBxiwU7NG2yBbOXdDy-3" value="PROFESOR" style="whiteSpace=wrap;html=1;align=center;" parent="1" vertex="1">
          <mxGeometry x="90" y="440" width="100" height="40" as="geometry" />
        </mxCell>
        <mxCell id="B1tBxiwU7NG2yBbOXdDy-4" value="Teléfono" style="ellipse;whiteSpace=wrap;html=1;align=center;" parent="1" vertex="1">
          <mxGeometry x="-390" y="200" width="100" height="40" as="geometry" />
        </mxCell>
        <mxCell id="B1tBxiwU7NG2yBbOXdDy-5" value="Fecha_Nacimiento" style="ellipse;whiteSpace=wrap;html=1;align=center;" parent="1" vertex="1">
          <mxGeometry x="-350" y="120" width="100" height="40" as="geometry" />
        </mxCell>
        <mxCell id="B1tBxiwU7NG2yBbOXdDy-6" value="Núm_Matrícula" style="ellipse;whiteSpace=wrap;html=1;align=center;" parent="1" vertex="1">
          <mxGeometry x="-190" y="120" width="100" height="40" as="geometry" />
        </mxCell>
        <mxCell id="B1tBxiwU7NG2yBbOXdDy-7" value="Nombre" style="ellipse;whiteSpace=wrap;html=1;align=center;" parent="1" vertex="1">
          <mxGeometry x="-150" y="200" width="100" height="40" as="geometry" />
        </mxCell>
        <mxCell id="B1tBxiwU7NG2yBbOXdDy-12" value="Nombre" style="ellipse;whiteSpace=wrap;html=1;align=center;" parent="1" vertex="1">
          <mxGeometry x="-430" y="480" width="100" height="40" as="geometry" />
        </mxCell>
        <mxCell id="B1tBxiwU7NG2yBbOXdDy-13" value="Código_Asignatura" style="ellipse;whiteSpace=wrap;html=1;align=center;" parent="1" vertex="1">
          <mxGeometry x="-430" y="400" width="100" height="40" as="geometry" />
        </mxCell>
        <mxCell id="B1tBxiwU7NG2yBbOXdDy-16" value="ID_Profesor" style="ellipse;whiteSpace=wrap;html=1;align=center;" parent="1" vertex="1">
          <mxGeometry x="250" y="440" width="100" height="40" as="geometry" />
        </mxCell>
        <mxCell id="B1tBxiwU7NG2yBbOXdDy-17" value="NIF_Profesor" style="ellipse;whiteSpace=wrap;html=1;align=center;" parent="1" vertex="1">
          <mxGeometry x="210" y="520" width="100" height="40" as="geometry" />
        </mxCell>
        <mxCell id="B1tBxiwU7NG2yBbOXdDy-18" value="Nombre" style="ellipse;whiteSpace=wrap;html=1;align=center;" parent="1" vertex="1">
          <mxGeometry x="90" y="560" width="100" height="40" as="geometry" />
        </mxCell>
        <mxCell id="B1tBxiwU7NG2yBbOXdDy-19" value="Teléfono" style="ellipse;whiteSpace=wrap;html=1;align=center;" parent="1" vertex="1">
          <mxGeometry x="210" y="360" width="100" height="40" as="geometry" />
        </mxCell>
        <mxCell id="B1tBxiwU7NG2yBbOXdDy-20" value="Especialidad" style="ellipse;whiteSpace=wrap;html=1;align=center;" parent="1" vertex="1">
          <mxGeometry x="90" y="320" width="100" height="40" as="geometry" />
        </mxCell>
        <mxCell id="B1tBxiwU7NG2yBbOXdDy-26" style="edgeStyle=orthogonalEdgeStyle;rounded=0;orthogonalLoop=1;jettySize=auto;html=1;exitX=0.5;exitY=1;exitDx=0;exitDy=0;" parent="1" source="B1tBxiwU7NG2yBbOXdDy-1" target="B1tBxiwU7NG2yBbOXdDy-1" edge="1">
          <mxGeometry relative="1" as="geometry" />
        </mxCell>
        <mxCell id="B1tBxiwU7NG2yBbOXdDy-29" style="edgeStyle=orthogonalEdgeStyle;rounded=0;orthogonalLoop=1;jettySize=auto;html=1;exitX=0.5;exitY=1;exitDx=0;exitDy=0;entryX=0.5;entryY=0;entryDx=0;entryDy=0;" parent="1" source="B1tBxiwU7NG2yBbOXdDy-27" target="B1tBxiwU7NG2yBbOXdDy-2" edge="1">
          <mxGeometry relative="1" as="geometry" />
        </mxCell>
        <mxCell id="B1tBxiwU7NG2yBbOXdDy-27" value="Aprende" style="shape=rhombus;perimeter=rhombusPerimeter;whiteSpace=wrap;html=1;align=center;" parent="1" vertex="1">
          <mxGeometry x="-280" y="330" width="120" height="60" as="geometry" />
        </mxCell>
        <mxCell id="B1tBxiwU7NG2yBbOXdDy-33" style="edgeStyle=orthogonalEdgeStyle;rounded=0;orthogonalLoop=1;jettySize=auto;html=1;exitX=0;exitY=0.5;exitDx=0;exitDy=0;entryX=1;entryY=0.5;entryDx=0;entryDy=0;" parent="1" source="B1tBxiwU7NG2yBbOXdDy-31" target="B1tBxiwU7NG2yBbOXdDy-2" edge="1">
          <mxGeometry relative="1" as="geometry" />
        </mxCell>
        <mxCell id="B1tBxiwU7NG2yBbOXdDy-31" value="Imparte" style="shape=rhombus;perimeter=rhombusPerimeter;whiteSpace=wrap;html=1;align=center;" parent="1" vertex="1">
          <mxGeometry x="-100" y="430" width="120" height="60" as="geometry" />
        </mxCell>
      </root>
    </mxGraphModel>
  </diagram>
</mxfile>
